<mxfile host="app.diagrams.net" modified="2024-03-07T23:13:11.257Z" agent="Mozilla/5.0 (X11; Linux x86_64) AppleWebKit/537.36 (KHTML, like Gecko) Chrome/122.0.0.0 Safari/537.36" etag="FDVWD0M4dVnKzX2v_Tq6" version="24.0.2" type="google">
  <diagram name="Página-1" id="U43VhN0IVjfVWaT28Ef_">
    <mxGraphModel grid="1" page="1" gridSize="10" guides="1" tooltips="1" connect="1" arrows="1" fold="1" pageScale="1" pageWidth="50000" pageHeight="50000" math="0" shadow="0">
      <root>
        <mxCell id="0" />
        <mxCell id="1" parent="0" />
        <mxCell id="tkMao10HomGiFmudgU2h-20" value="" style="edgeStyle=orthogonalEdgeStyle;rounded=0;orthogonalLoop=1;jettySize=auto;html=1;endArrow=none;endFill=0;" edge="1" parent="1" source="tkMao10HomGiFmudgU2h-1" target="tkMao10HomGiFmudgU2h-19">
          <mxGeometry relative="1" as="geometry" />
        </mxCell>
        <mxCell id="tkMao10HomGiFmudgU2h-22" value="N" style="edgeLabel;html=1;align=center;verticalAlign=middle;resizable=0;points=[];" connectable="0" vertex="1" parent="tkMao10HomGiFmudgU2h-20">
          <mxGeometry x="-0.1" y="-1" relative="1" as="geometry">
            <mxPoint as="offset" />
          </mxGeometry>
        </mxCell>
        <mxCell id="tkMao10HomGiFmudgU2h-26" value="" style="edgeStyle=orthogonalEdgeStyle;rounded=0;orthogonalLoop=1;jettySize=auto;html=1;endArrow=none;endFill=0;" edge="1" parent="1" source="tkMao10HomGiFmudgU2h-1" target="tkMao10HomGiFmudgU2h-25">
          <mxGeometry relative="1" as="geometry" />
        </mxCell>
        <mxCell id="tkMao10HomGiFmudgU2h-29" value="N" style="edgeLabel;html=1;align=center;verticalAlign=middle;resizable=0;points=[];" connectable="0" vertex="1" parent="tkMao10HomGiFmudgU2h-26">
          <mxGeometry x="-0.1786" y="-1" relative="1" as="geometry">
            <mxPoint y="-1" as="offset" />
          </mxGeometry>
        </mxCell>
        <mxCell id="tkMao10HomGiFmudgU2h-1" value="Lanche" style="rounded=0;whiteSpace=wrap;html=1;" vertex="1" parent="1">
          <mxGeometry x="400" y="120" width="120" height="40" as="geometry" />
        </mxCell>
        <mxCell id="tkMao10HomGiFmudgU2h-2" value="Descricao" style="ellipse;whiteSpace=wrap;html=1;" vertex="1" parent="1">
          <mxGeometry x="400" y="200" width="120" height="40" as="geometry" />
        </mxCell>
        <mxCell id="tkMao10HomGiFmudgU2h-3" value="Preco" style="ellipse;whiteSpace=wrap;html=1;" vertex="1" parent="1">
          <mxGeometry x="400" y="240" width="120" height="40" as="geometry" />
        </mxCell>
        <mxCell id="tkMao10HomGiFmudgU2h-6" value="Ingrediente" style="rounded=0;whiteSpace=wrap;html=1;" vertex="1" parent="1">
          <mxGeometry x="120" y="120" width="120" height="40" as="geometry" />
        </mxCell>
        <mxCell id="tkMao10HomGiFmudgU2h-7" value="Descricao" style="ellipse;whiteSpace=wrap;html=1;" vertex="1" parent="1">
          <mxGeometry x="120" y="200" width="120" height="40" as="geometry" />
        </mxCell>
        <mxCell id="tkMao10HomGiFmudgU2h-8" value="PrecoCusto" style="ellipse;whiteSpace=wrap;html=1;" vertex="1" parent="1">
          <mxGeometry x="120" y="240" width="120" height="40" as="geometry" />
        </mxCell>
        <mxCell id="tkMao10HomGiFmudgU2h-9" value="Cliente" style="rounded=0;whiteSpace=wrap;html=1;" vertex="1" parent="1">
          <mxGeometry x="960" y="120" width="120" height="40" as="geometry" />
        </mxCell>
        <mxCell id="tkMao10HomGiFmudgU2h-32" value="" style="edgeStyle=orthogonalEdgeStyle;rounded=0;orthogonalLoop=1;jettySize=auto;html=1;endArrow=none;endFill=0;" edge="1" parent="1" source="tkMao10HomGiFmudgU2h-10" target="tkMao10HomGiFmudgU2h-31">
          <mxGeometry relative="1" as="geometry" />
        </mxCell>
        <mxCell id="tkMao10HomGiFmudgU2h-35" value="N" style="edgeLabel;html=1;align=center;verticalAlign=middle;resizable=0;points=[];" connectable="0" vertex="1" parent="tkMao10HomGiFmudgU2h-32">
          <mxGeometry x="-0.0167" y="2" relative="1" as="geometry">
            <mxPoint y="2" as="offset" />
          </mxGeometry>
        </mxCell>
        <mxCell id="tkMao10HomGiFmudgU2h-10" value="Pedido" style="rounded=0;whiteSpace=wrap;html=1;" vertex="1" parent="1">
          <mxGeometry x="680" y="120" width="120" height="40" as="geometry" />
        </mxCell>
        <mxCell id="tkMao10HomGiFmudgU2h-11" value="Data" style="ellipse;whiteSpace=wrap;html=1;" vertex="1" parent="1">
          <mxGeometry x="680" y="200" width="120" height="40" as="geometry" />
        </mxCell>
        <mxCell id="tkMao10HomGiFmudgU2h-13" value="&lt;u&gt;IdPedido&lt;/u&gt;" style="ellipse;whiteSpace=wrap;html=1;" vertex="1" parent="1">
          <mxGeometry x="680" y="160" width="120" height="40" as="geometry" />
        </mxCell>
        <mxCell id="tkMao10HomGiFmudgU2h-14" value="&lt;u&gt;IdCliente&lt;/u&gt;" style="ellipse;whiteSpace=wrap;html=1;" vertex="1" parent="1">
          <mxGeometry x="960" y="160" width="120" height="40" as="geometry" />
        </mxCell>
        <mxCell id="tkMao10HomGiFmudgU2h-15" value="Nome" style="ellipse;whiteSpace=wrap;html=1;" vertex="1" parent="1">
          <mxGeometry x="960" y="200" width="120" height="40" as="geometry" />
        </mxCell>
        <mxCell id="tkMao10HomGiFmudgU2h-16" value="Telefone" style="ellipse;whiteSpace=wrap;html=1;" vertex="1" parent="1">
          <mxGeometry x="960" y="240" width="120" height="40" as="geometry" />
        </mxCell>
        <mxCell id="tkMao10HomGiFmudgU2h-17" value="&lt;u&gt;IdIngrediente&lt;/u&gt;" style="ellipse;whiteSpace=wrap;html=1;" vertex="1" parent="1">
          <mxGeometry x="120" y="160" width="120" height="40" as="geometry" />
        </mxCell>
        <mxCell id="tkMao10HomGiFmudgU2h-18" value="&lt;u&gt;IdLanche&lt;/u&gt;" style="ellipse;whiteSpace=wrap;html=1;" vertex="1" parent="1">
          <mxGeometry x="400" y="160" width="120" height="40" as="geometry" />
        </mxCell>
        <mxCell id="tkMao10HomGiFmudgU2h-21" style="edgeStyle=orthogonalEdgeStyle;rounded=0;orthogonalLoop=1;jettySize=auto;html=1;entryX=1;entryY=0.5;entryDx=0;entryDy=0;endArrow=none;endFill=0;" edge="1" parent="1" source="tkMao10HomGiFmudgU2h-19" target="tkMao10HomGiFmudgU2h-6">
          <mxGeometry relative="1" as="geometry" />
        </mxCell>
        <mxCell id="tkMao10HomGiFmudgU2h-24" value="N" style="edgeLabel;html=1;align=center;verticalAlign=middle;resizable=0;points=[];" connectable="0" vertex="1" parent="tkMao10HomGiFmudgU2h-21">
          <mxGeometry x="-0.2384" relative="1" as="geometry">
            <mxPoint as="offset" />
          </mxGeometry>
        </mxCell>
        <mxCell id="tkMao10HomGiFmudgU2h-19" value="Possui" style="rhombus;whiteSpace=wrap;html=1;rounded=0;" vertex="1" parent="1">
          <mxGeometry x="280" y="100" width="80" height="80" as="geometry" />
        </mxCell>
        <mxCell id="tkMao10HomGiFmudgU2h-27" style="edgeStyle=orthogonalEdgeStyle;rounded=0;orthogonalLoop=1;jettySize=auto;html=1;entryX=0;entryY=0.5;entryDx=0;entryDy=0;endArrow=none;endFill=0;" edge="1" parent="1" source="tkMao10HomGiFmudgU2h-25" target="tkMao10HomGiFmudgU2h-10">
          <mxGeometry relative="1" as="geometry" />
        </mxCell>
        <mxCell id="tkMao10HomGiFmudgU2h-28" value="N" style="edgeLabel;html=1;align=center;verticalAlign=middle;resizable=0;points=[];" connectable="0" vertex="1" parent="tkMao10HomGiFmudgU2h-27">
          <mxGeometry x="-0.2929" y="-1" relative="1" as="geometry">
            <mxPoint y="-1" as="offset" />
          </mxGeometry>
        </mxCell>
        <mxCell id="tkMao10HomGiFmudgU2h-25" value="Contém" style="rhombus;whiteSpace=wrap;html=1;rounded=0;" vertex="1" parent="1">
          <mxGeometry x="560" y="100" width="80" height="80" as="geometry" />
        </mxCell>
        <mxCell id="tkMao10HomGiFmudgU2h-33" style="edgeStyle=orthogonalEdgeStyle;rounded=0;orthogonalLoop=1;jettySize=auto;html=1;entryX=0;entryY=0.5;entryDx=0;entryDy=0;endArrow=none;endFill=0;" edge="1" parent="1" source="tkMao10HomGiFmudgU2h-31" target="tkMao10HomGiFmudgU2h-9">
          <mxGeometry relative="1" as="geometry" />
        </mxCell>
        <mxCell id="tkMao10HomGiFmudgU2h-34" value="1" style="edgeLabel;html=1;align=center;verticalAlign=middle;resizable=0;points=[];" connectable="0" vertex="1" parent="tkMao10HomGiFmudgU2h-33">
          <mxGeometry x="-0.0167" y="1" relative="1" as="geometry">
            <mxPoint y="1" as="offset" />
          </mxGeometry>
        </mxCell>
        <mxCell id="tkMao10HomGiFmudgU2h-31" value="Faz" style="rhombus;whiteSpace=wrap;html=1;rounded=0;" vertex="1" parent="1">
          <mxGeometry x="840" y="100" width="80" height="80" as="geometry" />
        </mxCell>
        <mxCell id="tkMao10HomGiFmudgU2h-36" value="" style="childLayout=tableLayout;recursiveResize=0;shadow=0;fillColor=none;" vertex="1" parent="1">
          <mxGeometry x="280" y="600" width="80" height="200" as="geometry" />
        </mxCell>
        <mxCell id="tkMao10HomGiFmudgU2h-37" value="" style="shape=tableRow;horizontal=0;startSize=0;swimlaneHead=0;swimlaneBody=0;top=0;left=0;bottom=0;right=0;dropTarget=0;collapsible=0;recursiveResize=0;expand=0;fontStyle=0;fillColor=none;strokeColor=inherit;" vertex="1" parent="tkMao10HomGiFmudgU2h-36">
          <mxGeometry width="80" height="67" as="geometry" />
        </mxCell>
        <mxCell id="tkMao10HomGiFmudgU2h-38" value="&lt;u&gt;IdIngrediente&lt;/u&gt;" style="connectable=0;recursiveResize=0;strokeColor=inherit;fillColor=none;align=center;whiteSpace=wrap;html=1;" vertex="1" parent="tkMao10HomGiFmudgU2h-37">
          <mxGeometry width="80" height="67" as="geometry">
            <mxRectangle width="80" height="67" as="alternateBounds" />
          </mxGeometry>
        </mxCell>
        <mxCell id="tkMao10HomGiFmudgU2h-41" style="shape=tableRow;horizontal=0;startSize=0;swimlaneHead=0;swimlaneBody=0;top=0;left=0;bottom=0;right=0;dropTarget=0;collapsible=0;recursiveResize=0;expand=0;fontStyle=0;fillColor=none;strokeColor=inherit;" vertex="1" parent="tkMao10HomGiFmudgU2h-36">
          <mxGeometry y="67" width="80" height="66" as="geometry" />
        </mxCell>
        <mxCell id="tkMao10HomGiFmudgU2h-42" value="Descricao" style="connectable=0;recursiveResize=0;strokeColor=inherit;fillColor=none;align=center;whiteSpace=wrap;html=1;" vertex="1" parent="tkMao10HomGiFmudgU2h-41">
          <mxGeometry width="80" height="66" as="geometry">
            <mxRectangle width="80" height="66" as="alternateBounds" />
          </mxGeometry>
        </mxCell>
        <mxCell id="tkMao10HomGiFmudgU2h-45" style="shape=tableRow;horizontal=0;startSize=0;swimlaneHead=0;swimlaneBody=0;top=0;left=0;bottom=0;right=0;dropTarget=0;collapsible=0;recursiveResize=0;expand=0;fontStyle=0;fillColor=none;strokeColor=inherit;" vertex="1" parent="tkMao10HomGiFmudgU2h-36">
          <mxGeometry y="133" width="80" height="67" as="geometry" />
        </mxCell>
        <mxCell id="tkMao10HomGiFmudgU2h-46" value="PrecoCusto" style="connectable=0;recursiveResize=0;strokeColor=inherit;fillColor=none;align=center;whiteSpace=wrap;html=1;" vertex="1" parent="tkMao10HomGiFmudgU2h-45">
          <mxGeometry width="80" height="67" as="geometry">
            <mxRectangle width="80" height="67" as="alternateBounds" />
          </mxGeometry>
        </mxCell>
        <mxCell id="tkMao10HomGiFmudgU2h-56" value="" style="childLayout=tableLayout;recursiveResize=0;shadow=0;fillColor=none;" vertex="1" parent="1">
          <mxGeometry x="440" y="360" width="80" height="200" as="geometry" />
        </mxCell>
        <mxCell id="tkMao10HomGiFmudgU2h-57" value="" style="shape=tableRow;horizontal=0;startSize=0;swimlaneHead=0;swimlaneBody=0;top=0;left=0;bottom=0;right=0;dropTarget=0;collapsible=0;recursiveResize=0;expand=0;fontStyle=0;fillColor=none;strokeColor=inherit;" vertex="1" parent="tkMao10HomGiFmudgU2h-56">
          <mxGeometry width="80" height="67" as="geometry" />
        </mxCell>
        <mxCell id="tkMao10HomGiFmudgU2h-58" value="&lt;u&gt;IdLanche&lt;/u&gt;" style="connectable=0;recursiveResize=0;strokeColor=inherit;fillColor=none;align=center;whiteSpace=wrap;html=1;" vertex="1" parent="tkMao10HomGiFmudgU2h-57">
          <mxGeometry width="80" height="67" as="geometry">
            <mxRectangle width="80" height="67" as="alternateBounds" />
          </mxGeometry>
        </mxCell>
        <mxCell id="tkMao10HomGiFmudgU2h-59" style="shape=tableRow;horizontal=0;startSize=0;swimlaneHead=0;swimlaneBody=0;top=0;left=0;bottom=0;right=0;dropTarget=0;collapsible=0;recursiveResize=0;expand=0;fontStyle=0;fillColor=none;strokeColor=inherit;" vertex="1" parent="tkMao10HomGiFmudgU2h-56">
          <mxGeometry y="67" width="80" height="66" as="geometry" />
        </mxCell>
        <mxCell id="tkMao10HomGiFmudgU2h-60" value="Descricao" style="connectable=0;recursiveResize=0;strokeColor=inherit;fillColor=none;align=center;whiteSpace=wrap;html=1;" vertex="1" parent="tkMao10HomGiFmudgU2h-59">
          <mxGeometry width="80" height="66" as="geometry">
            <mxRectangle width="80" height="66" as="alternateBounds" />
          </mxGeometry>
        </mxCell>
        <mxCell id="tkMao10HomGiFmudgU2h-61" style="shape=tableRow;horizontal=0;startSize=0;swimlaneHead=0;swimlaneBody=0;top=0;left=0;bottom=0;right=0;dropTarget=0;collapsible=0;recursiveResize=0;expand=0;fontStyle=0;fillColor=none;strokeColor=inherit;" vertex="1" parent="tkMao10HomGiFmudgU2h-56">
          <mxGeometry y="133" width="80" height="67" as="geometry" />
        </mxCell>
        <mxCell id="tkMao10HomGiFmudgU2h-62" value="Preco" style="connectable=0;recursiveResize=0;strokeColor=inherit;fillColor=none;align=center;whiteSpace=wrap;html=1;" vertex="1" parent="tkMao10HomGiFmudgU2h-61">
          <mxGeometry width="80" height="67" as="geometry">
            <mxRectangle width="80" height="67" as="alternateBounds" />
          </mxGeometry>
        </mxCell>
        <mxCell id="tkMao10HomGiFmudgU2h-63" value="" style="childLayout=tableLayout;recursiveResize=0;shadow=0;fillColor=none;" vertex="1" parent="1">
          <mxGeometry x="280" y="400" width="80" height="133" as="geometry" />
        </mxCell>
        <mxCell id="tkMao10HomGiFmudgU2h-64" value="" style="shape=tableRow;horizontal=0;startSize=0;swimlaneHead=0;swimlaneBody=0;top=0;left=0;bottom=0;right=0;dropTarget=0;collapsible=0;recursiveResize=0;expand=0;fontStyle=0;fillColor=none;strokeColor=inherit;" vertex="1" parent="tkMao10HomGiFmudgU2h-63">
          <mxGeometry width="80" height="67" as="geometry" />
        </mxCell>
        <mxCell id="tkMao10HomGiFmudgU2h-65" value="&lt;u&gt;IdLanche&lt;/u&gt;" style="connectable=0;recursiveResize=0;strokeColor=inherit;fillColor=none;align=center;whiteSpace=wrap;html=1;" vertex="1" parent="tkMao10HomGiFmudgU2h-64">
          <mxGeometry width="80" height="67" as="geometry">
            <mxRectangle width="80" height="67" as="alternateBounds" />
          </mxGeometry>
        </mxCell>
        <mxCell id="tkMao10HomGiFmudgU2h-66" style="shape=tableRow;horizontal=0;startSize=0;swimlaneHead=0;swimlaneBody=0;top=0;left=0;bottom=0;right=0;dropTarget=0;collapsible=0;recursiveResize=0;expand=0;fontStyle=0;fillColor=none;strokeColor=inherit;" vertex="1" parent="tkMao10HomGiFmudgU2h-63">
          <mxGeometry y="67" width="80" height="66" as="geometry" />
        </mxCell>
        <mxCell id="tkMao10HomGiFmudgU2h-67" value="&lt;u&gt;IdIngrediente&lt;/u&gt;" style="connectable=0;recursiveResize=0;strokeColor=inherit;fillColor=none;align=center;whiteSpace=wrap;html=1;" vertex="1" parent="tkMao10HomGiFmudgU2h-66">
          <mxGeometry width="80" height="66" as="geometry">
            <mxRectangle width="80" height="66" as="alternateBounds" />
          </mxGeometry>
        </mxCell>
        <mxCell id="tkMao10HomGiFmudgU2h-72" style="edgeStyle=orthogonalEdgeStyle;rounded=0;orthogonalLoop=1;jettySize=auto;html=1;entryX=0;entryY=0.5;entryDx=0;entryDy=0;endArrow=none;endFill=0;" edge="1" parent="1" source="tkMao10HomGiFmudgU2h-64" target="tkMao10HomGiFmudgU2h-57">
          <mxGeometry relative="1" as="geometry" />
        </mxCell>
        <mxCell id="tkMao10HomGiFmudgU2h-73" style="edgeStyle=orthogonalEdgeStyle;rounded=0;orthogonalLoop=1;jettySize=auto;html=1;entryX=1;entryY=0.5;entryDx=0;entryDy=0;endArrow=none;endFill=0;" edge="1" parent="1" source="tkMao10HomGiFmudgU2h-66" target="tkMao10HomGiFmudgU2h-37">
          <mxGeometry relative="1" as="geometry">
            <Array as="points">
              <mxPoint x="320" y="562" />
              <mxPoint x="400" y="562" />
              <mxPoint x="400" y="624" />
            </Array>
          </mxGeometry>
        </mxCell>
        <mxCell id="tkMao10HomGiFmudgU2h-74" value="" style="childLayout=tableLayout;recursiveResize=0;shadow=0;fillColor=none;" vertex="1" parent="1">
          <mxGeometry x="600" y="600" width="80" height="199" as="geometry" />
        </mxCell>
        <mxCell id="tkMao10HomGiFmudgU2h-75" value="" style="shape=tableRow;horizontal=0;startSize=0;swimlaneHead=0;swimlaneBody=0;top=0;left=0;bottom=0;right=0;dropTarget=0;collapsible=0;recursiveResize=0;expand=0;fontStyle=0;fillColor=none;strokeColor=inherit;" vertex="1" parent="tkMao10HomGiFmudgU2h-74">
          <mxGeometry width="80" height="67" as="geometry" />
        </mxCell>
        <mxCell id="tkMao10HomGiFmudgU2h-76" value="&lt;u&gt;IdPedido&lt;/u&gt;" style="connectable=0;recursiveResize=0;strokeColor=inherit;fillColor=none;align=center;whiteSpace=wrap;html=1;" vertex="1" parent="tkMao10HomGiFmudgU2h-75">
          <mxGeometry width="80" height="67" as="geometry">
            <mxRectangle width="80" height="67" as="alternateBounds" />
          </mxGeometry>
        </mxCell>
        <mxCell id="tkMao10HomGiFmudgU2h-77" style="shape=tableRow;horizontal=0;startSize=0;swimlaneHead=0;swimlaneBody=0;top=0;left=0;bottom=0;right=0;dropTarget=0;collapsible=0;recursiveResize=0;expand=0;fontStyle=0;fillColor=none;strokeColor=inherit;" vertex="1" parent="tkMao10HomGiFmudgU2h-74">
          <mxGeometry y="67" width="80" height="66" as="geometry" />
        </mxCell>
        <mxCell id="tkMao10HomGiFmudgU2h-78" value="&lt;u&gt;IdCliente&lt;/u&gt;" style="connectable=0;recursiveResize=0;strokeColor=inherit;fillColor=none;align=center;whiteSpace=wrap;html=1;" vertex="1" parent="tkMao10HomGiFmudgU2h-77">
          <mxGeometry width="80" height="66" as="geometry">
            <mxRectangle width="80" height="66" as="alternateBounds" />
          </mxGeometry>
        </mxCell>
        <mxCell id="tkMao10HomGiFmudgU2h-117" style="shape=tableRow;horizontal=0;startSize=0;swimlaneHead=0;swimlaneBody=0;top=0;left=0;bottom=0;right=0;dropTarget=0;collapsible=0;recursiveResize=0;expand=0;fontStyle=0;fillColor=none;strokeColor=inherit;" vertex="1" parent="tkMao10HomGiFmudgU2h-74">
          <mxGeometry y="133" width="80" height="66" as="geometry" />
        </mxCell>
        <mxCell id="tkMao10HomGiFmudgU2h-118" value="Data" style="connectable=0;recursiveResize=0;strokeColor=inherit;fillColor=none;align=center;whiteSpace=wrap;html=1;" vertex="1" parent="tkMao10HomGiFmudgU2h-117">
          <mxGeometry width="80" height="66" as="geometry">
            <mxRectangle width="80" height="66" as="alternateBounds" />
          </mxGeometry>
        </mxCell>
        <mxCell id="tkMao10HomGiFmudgU2h-81" value="" style="childLayout=tableLayout;recursiveResize=0;shadow=0;fillColor=none;" vertex="1" parent="1">
          <mxGeometry x="600" y="400" width="80" height="133" as="geometry" />
        </mxCell>
        <mxCell id="tkMao10HomGiFmudgU2h-82" value="" style="shape=tableRow;horizontal=0;startSize=0;swimlaneHead=0;swimlaneBody=0;top=0;left=0;bottom=0;right=0;dropTarget=0;collapsible=0;recursiveResize=0;expand=0;fontStyle=0;fillColor=none;strokeColor=inherit;" vertex="1" parent="tkMao10HomGiFmudgU2h-81">
          <mxGeometry width="80" height="67" as="geometry" />
        </mxCell>
        <mxCell id="tkMao10HomGiFmudgU2h-83" value="&lt;u&gt;IdPedido&lt;/u&gt;" style="connectable=0;recursiveResize=0;strokeColor=inherit;fillColor=none;align=center;whiteSpace=wrap;html=1;" vertex="1" parent="tkMao10HomGiFmudgU2h-82">
          <mxGeometry width="80" height="67" as="geometry">
            <mxRectangle width="80" height="67" as="alternateBounds" />
          </mxGeometry>
        </mxCell>
        <mxCell id="tkMao10HomGiFmudgU2h-84" style="shape=tableRow;horizontal=0;startSize=0;swimlaneHead=0;swimlaneBody=0;top=0;left=0;bottom=0;right=0;dropTarget=0;collapsible=0;recursiveResize=0;expand=0;fontStyle=0;fillColor=none;strokeColor=inherit;" vertex="1" parent="tkMao10HomGiFmudgU2h-81">
          <mxGeometry y="67" width="80" height="66" as="geometry" />
        </mxCell>
        <mxCell id="tkMao10HomGiFmudgU2h-85" value="&lt;u&gt;IdLanche&lt;/u&gt;" style="connectable=0;recursiveResize=0;strokeColor=inherit;fillColor=none;align=center;whiteSpace=wrap;html=1;" vertex="1" parent="tkMao10HomGiFmudgU2h-84">
          <mxGeometry width="80" height="66" as="geometry">
            <mxRectangle width="80" height="66" as="alternateBounds" />
          </mxGeometry>
        </mxCell>
        <mxCell id="tkMao10HomGiFmudgU2h-86" style="edgeStyle=orthogonalEdgeStyle;rounded=0;orthogonalLoop=1;jettySize=auto;html=1;entryX=1;entryY=0.5;entryDx=0;entryDy=0;endArrow=none;endFill=0;" edge="1" parent="1" source="tkMao10HomGiFmudgU2h-84" target="tkMao10HomGiFmudgU2h-57">
          <mxGeometry relative="1" as="geometry" />
        </mxCell>
        <mxCell id="tkMao10HomGiFmudgU2h-87" style="edgeStyle=orthogonalEdgeStyle;rounded=0;orthogonalLoop=1;jettySize=auto;html=1;entryX=1;entryY=0.5;entryDx=0;entryDy=0;endArrow=none;endFill=0;" edge="1" parent="1" source="tkMao10HomGiFmudgU2h-82" target="tkMao10HomGiFmudgU2h-75">
          <mxGeometry relative="1" as="geometry">
            <Array as="points">
              <mxPoint x="720" y="433" />
              <mxPoint x="720" y="633" />
            </Array>
          </mxGeometry>
        </mxCell>
        <mxCell id="tkMao10HomGiFmudgU2h-102" value="Quantidade" style="ellipse;whiteSpace=wrap;html=1;" vertex="1" parent="1">
          <mxGeometry x="260" y="180" width="120" height="40" as="geometry" />
        </mxCell>
        <mxCell id="tkMao10HomGiFmudgU2h-104" value="&lt;font style=&quot;font-size: 20px;&quot;&gt;Ingrediente&lt;/font&gt;" style="text;strokeColor=none;fillColor=none;html=1;fontSize=24;fontStyle=1;verticalAlign=middle;align=center;" vertex="1" parent="1">
          <mxGeometry x="280" y="560" width="80" height="40" as="geometry" />
        </mxCell>
        <mxCell id="tkMao10HomGiFmudgU2h-105" value="&lt;font style=&quot;font-size: 20px;&quot;&gt;Lanche&lt;/font&gt;" style="text;strokeColor=none;fillColor=none;html=1;fontSize=24;fontStyle=1;verticalAlign=middle;align=center;" vertex="1" parent="1">
          <mxGeometry x="440" y="320" width="80" height="40" as="geometry" />
        </mxCell>
        <mxCell id="tkMao10HomGiFmudgU2h-106" value="&lt;font style=&quot;font-size: 20px;&quot;&gt;Pedido&lt;/font&gt;" style="text;strokeColor=none;fillColor=none;html=1;fontSize=24;fontStyle=1;verticalAlign=middle;align=center;" vertex="1" parent="1">
          <mxGeometry x="600" y="560" width="80" height="40" as="geometry" />
        </mxCell>
        <mxCell id="tkMao10HomGiFmudgU2h-107" value="" style="childLayout=tableLayout;recursiveResize=0;shadow=0;fillColor=none;" vertex="1" parent="1">
          <mxGeometry x="760" y="666" width="80" height="133" as="geometry" />
        </mxCell>
        <mxCell id="tkMao10HomGiFmudgU2h-108" value="" style="shape=tableRow;horizontal=0;startSize=0;swimlaneHead=0;swimlaneBody=0;top=0;left=0;bottom=0;right=0;dropTarget=0;collapsible=0;recursiveResize=0;expand=0;fontStyle=0;fillColor=none;strokeColor=inherit;" vertex="1" parent="tkMao10HomGiFmudgU2h-107">
          <mxGeometry width="80" height="67" as="geometry" />
        </mxCell>
        <mxCell id="tkMao10HomGiFmudgU2h-109" value="&lt;u&gt;IdCliente&lt;/u&gt;" style="connectable=0;recursiveResize=0;strokeColor=inherit;fillColor=none;align=center;whiteSpace=wrap;html=1;" vertex="1" parent="tkMao10HomGiFmudgU2h-108">
          <mxGeometry width="80" height="67" as="geometry">
            <mxRectangle width="80" height="67" as="alternateBounds" />
          </mxGeometry>
        </mxCell>
        <mxCell id="tkMao10HomGiFmudgU2h-110" style="shape=tableRow;horizontal=0;startSize=0;swimlaneHead=0;swimlaneBody=0;top=0;left=0;bottom=0;right=0;dropTarget=0;collapsible=0;recursiveResize=0;expand=0;fontStyle=0;fillColor=none;strokeColor=inherit;" vertex="1" parent="tkMao10HomGiFmudgU2h-107">
          <mxGeometry y="67" width="80" height="66" as="geometry" />
        </mxCell>
        <mxCell id="tkMao10HomGiFmudgU2h-111" value="Data" style="connectable=0;recursiveResize=0;strokeColor=inherit;fillColor=none;align=center;whiteSpace=wrap;html=1;" vertex="1" parent="tkMao10HomGiFmudgU2h-110">
          <mxGeometry width="80" height="66" as="geometry">
            <mxRectangle width="80" height="66" as="alternateBounds" />
          </mxGeometry>
        </mxCell>
        <mxCell id="tkMao10HomGiFmudgU2h-113" value="&lt;font style=&quot;font-size: 20px;&quot;&gt;Cliente&lt;/font&gt;" style="text;strokeColor=none;fillColor=none;html=1;fontSize=24;fontStyle=1;verticalAlign=middle;align=center;" vertex="1" parent="1">
          <mxGeometry x="760" y="626" width="80" height="40" as="geometry" />
        </mxCell>
        <mxCell id="tkMao10HomGiFmudgU2h-114" style="edgeStyle=orthogonalEdgeStyle;rounded=0;orthogonalLoop=1;jettySize=auto;html=1;entryX=1;entryY=0.5;entryDx=0;entryDy=0;endArrow=none;endFill=0;" edge="1" parent="1" source="tkMao10HomGiFmudgU2h-108" target="tkMao10HomGiFmudgU2h-77">
          <mxGeometry relative="1" as="geometry" />
        </mxCell>
        <mxCell id="tkMao10HomGiFmudgU2h-115" value="&lt;font style=&quot;font-size: 20px;&quot;&gt;Lanche/Ingrediente&lt;/font&gt;" style="text;strokeColor=none;fillColor=none;html=1;fontSize=24;fontStyle=1;verticalAlign=middle;align=center;" vertex="1" parent="1">
          <mxGeometry x="280" y="360" width="80" height="40" as="geometry" />
        </mxCell>
        <mxCell id="tkMao10HomGiFmudgU2h-116" value="&lt;font style=&quot;font-size: 20px;&quot;&gt;Pedido/Lanche&lt;/font&gt;" style="text;strokeColor=none;fillColor=none;html=1;fontSize=24;fontStyle=1;verticalAlign=middle;align=center;" vertex="1" parent="1">
          <mxGeometry x="600" y="360" width="80" height="40" as="geometry" />
        </mxCell>
      </root>
    </mxGraphModel>
  </diagram>
</mxfile>
